<?xml version="1.0" encoding="iso-8859-1"?>
<!-- Uploaded to: SVG Repo, www.svgrepo.com, Generator: SVG Repo Mixer Tools -->
<svg version="1.1" id="Layer_1" xmlns="http://www.w3.org/2000/svg" xmlns:xlink="http://www.w3.org/1999/xlink" 
	 viewBox="0 0 512 512" xml:space="preserve">
<g>
	<polygon style="fill:#FFD791;" points="200.417,102.079 106.355,8.016 12.292,102.079 12.292,460.87 200.417,460.87 	"/>
	<rect x="12.292" y="460.875" style="fill:#FFD791;" width="188.125" height="43.108"/>
</g>
<g>
	<path style="fill:#6DDAE1;" d="M106.355,67.874c-18.891,0-34.205,15.314-34.205,34.205v76.96h68.409v-76.96
		C140.559,83.189,125.245,67.874,106.355,67.874z"/>
	<rect x="46.497" y="238.897" style="fill:#6DDAE1;" width="42.756" height="34.205"/>
	<rect x="123.457" y="238.897" style="fill:#6DDAE1;" width="42.756" height="34.205"/>
	<rect x="46.497" y="332.96" style="fill:#6DDAE1;" width="42.756" height="34.205"/>
	<rect x="123.457" y="332.96" style="fill:#6DDAE1;" width="42.756" height="34.205"/>
</g>
<polygon style="fill:#FFD791;" points="499.708,503.983 311.582,503.983 311.582,102.079 405.645,8.016 499.708,102.079 "/>
<g>
	<rect x="12.292" y="460.875" style="fill:#F8BE73;" width="188.125" height="43.108"/>
	<rect x="311.582" y="460.875" style="fill:#F8BE73;" width="188.125" height="43.108"/>
</g>
<g>
	<path style="fill:#6DDAE1;" d="M405.645,67.874c-18.891,0-34.205,15.314-34.205,34.205v76.96h68.409v-76.96
		C439.85,83.189,424.536,67.874,405.645,67.874z"/>
	<rect x="345.787" y="238.897" style="fill:#6DDAE1;" width="42.756" height="34.205"/>
	<rect x="422.747" y="238.897" style="fill:#6DDAE1;" width="42.756" height="34.205"/>
	<rect x="345.787" y="332.96" style="fill:#6DDAE1;" width="42.756" height="34.205"/>
	<rect x="422.747" y="332.96" style="fill:#6DDAE1;" width="42.756" height="34.205"/>
</g>
<rect x="200.417" y="102.079" style="fill:#999999;" width="111.165" height="401.904"/>
<g>
	<rect x="286.282" y="102.079" style="fill:#808080;" width="25.297" height="401.904"/>
	<rect x="200.417" y="102.079" style="fill:#808080;" width="26.009" height="401.904"/>
</g>
<g>
	<rect x="234.622" y="144.835" style="fill:#6DDAE1;" width="42.756" height="34.205"/>
	<rect x="234.622" y="238.897" style="fill:#6DDAE1;" width="42.756" height="34.205"/>
	<rect x="234.622" y="332.96" style="fill:#6DDAE1;" width="42.756" height="34.205"/>
	<rect x="234.622" y="427.023" style="fill:#6DDAE1;" width="42.756" height="34.205"/>
</g>
<circle style="fill:#C4DF64;" cx="448.401" cy="435.574" r="34.205"/>
<path style="fill:#96CA63;" d="M465.503,452.676c-18.891,0-34.205-15.314-34.205-34.205c0-5.018,1.089-9.778,3.03-14.072
	c-11.869,5.367-20.133,17.301-20.133,31.174c0,18.891,15.314,34.205,34.205,34.205c13.873,0,25.807-8.264,31.174-20.133
	C475.281,451.586,470.52,452.676,465.503,452.676z"/>
<circle style="fill:#C4DF64;" cx="362.889" cy="435.574" r="34.205"/>
<path style="fill:#96CA63;" d="M379.992,452.676c-18.891,0-34.205-15.314-34.205-34.205c0-5.018,1.089-9.778,3.03-14.072
	c-11.869,5.367-20.133,17.301-20.133,31.174c0,18.891,15.314,34.205,34.205,34.205c13.873,0,25.807-8.264,31.174-20.133
	C389.77,451.586,385.009,452.676,379.992,452.676z"/>
<circle style="fill:#C4DF64;" cx="149.111" cy="435.574" r="34.205"/>
<path style="fill:#96CA63;" d="M166.213,452.676c-18.891,0-34.205-15.314-34.205-34.205c0-5.018,1.089-9.778,3.03-14.072
	c-11.869,5.367-20.133,17.301-20.133,31.174c0,18.891,15.314,34.205,34.205,34.205c13.873,0,25.807-8.264,31.174-20.133
	C175.991,451.586,171.23,452.676,166.213,452.676z"/>
<circle style="fill:#C4DF64;" cx="63.599" cy="435.574" r="34.205"/>
<path style="fill:#96CA63;" d="M80.701,452.676c-18.891,0-34.205-15.314-34.205-34.205c0-5.018,1.089-9.778,3.03-14.072
	c-11.869,5.367-20.133,17.301-20.133,31.174c0,18.891,15.314,34.205,34.205,34.205c13.873,0,25.807-8.264,31.174-20.133
	C90.48,451.586,85.719,452.676,80.701,452.676z"/>
<path d="M106.355,59.858c-23.281,0-42.221,18.94-42.221,42.221v76.96c0,4.427,3.588,8.017,8.017,8.017h68.409
	c4.428,0,8.017-3.589,8.017-8.017v-76.96C148.576,78.798,129.635,59.858,106.355,59.858z M106.355,75.891
	c11.645,0,21.534,7.642,24.928,18.171H81.427C84.821,83.533,94.71,75.891,106.355,75.891z M80.167,110.096h18.171v60.927H80.167
	V110.096z M114.371,171.023v-60.927h18.171v60.927H114.371z"/>
<path d="M38.48,238.897v34.205c0,4.427,3.588,8.017,8.017,8.017h42.756c4.428,0,8.017-3.589,8.017-8.017v-34.205
	c0-4.427-3.588-8.017-8.017-8.017H46.497C42.068,230.881,38.48,234.47,38.48,238.897z M54.513,246.914h26.722v18.171H54.513V246.914
	z"/>
<path d="M174.23,238.897c0-4.427-3.588-8.017-8.017-8.017h-42.756c-4.428,0-8.017,3.589-8.017,8.017v34.205
	c0,4.427,3.588,8.017,8.017,8.017h42.756c4.428,0,8.017-3.589,8.017-8.017V238.897z M158.196,265.085h-26.722v-18.171h26.722
	V265.085z"/>
<path d="M38.48,367.165c0,4.427,3.588,8.017,8.017,8.017h42.756c4.428,0,8.017-3.589,8.017-8.017V332.96
	c0-4.427-3.588-8.017-8.017-8.017H46.497c-4.428,0-8.017,3.589-8.017,8.017V367.165z M54.513,340.977h26.722v18.171H54.513V340.977z
	"/>
<path d="M166.213,324.943h-42.756c-4.428,0-8.017,3.589-8.017,8.017v34.205c0,4.427,3.588,8.017,8.017,8.017h42.756
	c4.428,0,8.017-3.589,8.017-8.017V332.96C174.23,328.533,170.64,324.943,166.213,324.943z M158.196,359.148h-26.722v-18.171h26.722
	V359.148z"/>
<path d="M499.708,144.3c4.428,0,8.017-3.589,8.017-8.017v-34.205c0-2.126-0.844-4.165-2.347-5.668L411.314,2.348
	c-3.132-3.131-8.207-3.131-11.338,0l-91.715,91.714H203.738L112.024,2.348c-3.132-3.131-8.207-3.131-11.338,0L6.624,96.411
	c-1.504,1.503-2.348,3.541-2.348,5.668v188.125c0,4.427,3.588,8.017,8.017,8.017s8.017-3.589,8.017-8.017V105.399l86.046-86.046
	l86.046,86.046v390.567h-35.273v-18.944c19.459-3.757,34.205-20.909,34.205-41.448c0-23.28-18.941-42.221-42.221-42.221
	s-42.221,18.941-42.221,42.221c0,20.54,14.745,37.691,34.205,41.448v18.944H71.616v-18.944
	c19.459-3.757,34.205-20.909,34.205-41.448c0-23.28-18.941-42.221-42.221-42.221s-42.221,18.94-42.221,42.221
	c0,20.54,14.745,37.691,34.205,41.448v18.944H20.309V332.96c0-4.427-3.588-8.017-8.017-8.017s-8.017,3.589-8.017,8.017v171.023
	c0,4.427,3.588,8.017,8.017,8.017h487.415c4.428,0,8.017-3.589,8.017-8.017V179.039c0-4.427-3.588-8.017-8.017-8.017
	s-8.017,3.589-8.017,8.017v316.927h-35.273v-18.944c19.459-3.757,34.205-20.909,34.205-41.448c0-23.28-18.941-42.221-42.221-42.221
	c-23.281,0-42.221,18.941-42.221,42.221c0,20.54,14.745,37.691,34.205,41.448v18.944h-69.478v-18.944
	c19.459-3.757,34.205-20.909,34.205-41.448c0-23.28-18.941-42.221-42.221-42.221c-23.28,0-42.221,18.941-42.221,42.221
	c0,20.54,14.745,37.691,34.205,41.448v18.944h-35.273V105.399l86.046-86.046l86.046,86.046v30.885
	C491.691,140.711,495.279,144.3,499.708,144.3z M122.923,435.574c0-14.44,11.747-26.188,26.188-26.188
	c14.441,0,26.188,11.747,26.188,26.188s-11.747,26.188-26.188,26.188S122.923,450.014,122.923,435.574z M37.411,435.574
	c0-14.441,11.747-26.188,26.188-26.188s26.188,11.747,26.188,26.188s-11.747,26.188-26.188,26.188S37.411,450.014,37.411,435.574z
	 M422.213,435.574c0-14.44,11.747-26.188,26.188-26.188c14.441,0,26.188,11.747,26.188,26.188s-11.747,26.188-26.188,26.188
	C433.96,461.762,422.213,450.014,422.213,435.574z M336.701,435.574c0-14.44,11.747-26.188,26.188-26.188
	s26.188,11.747,26.188,26.188s-11.747,26.188-26.188,26.188S336.701,450.014,336.701,435.574z M208.434,110.096h95.132v385.871
	h-95.132V110.096z"/>
<path d="M439.85,187.056c4.428,0,8.017-3.589,8.017-8.017v-76.96c0-23.281-18.941-42.221-42.221-42.221
	c-23.28,0-42.221,18.94-42.221,42.221v76.96c0,4.427,3.588,8.017,8.017,8.017H439.85z M413.662,171.023v-60.927h18.171v60.927
	H413.662z M405.645,75.891c11.645,0,21.534,7.642,24.928,18.171h-49.856C384.111,83.533,394,75.891,405.645,75.891z
	 M379.457,110.096h18.171v60.927h-18.171V110.096z"/>
<path d="M396.559,238.897c0-4.427-3.588-8.017-8.017-8.017h-42.756c-4.428,0-8.017,3.589-8.017,8.017v34.205
	c0,4.427,3.588,8.017,8.017,8.017h42.756c4.428,0,8.017-3.589,8.017-8.017V238.897z M380.526,265.085h-26.722v-18.171h26.722
	V265.085z"/>
<path d="M473.52,238.897c0-4.427-3.588-8.017-8.017-8.017h-42.756c-4.428,0-8.017,3.589-8.017,8.017v34.205
	c0,4.427,3.588,8.017,8.017,8.017h42.756c4.428,0,8.017-3.589,8.017-8.017V238.897z M457.486,265.085h-26.722v-18.171h26.722
	V265.085z"/>
<path d="M388.543,324.943h-42.756c-4.428,0-8.017,3.589-8.017,8.017v34.205c0,4.427,3.588,8.017,8.017,8.017h42.756
	c4.428,0,8.017-3.589,8.017-8.017V332.96C396.559,328.533,392.97,324.943,388.543,324.943z M380.526,359.148h-26.722v-18.171h26.722
	V359.148z"/>
<path d="M422.747,375.181h42.756c4.428,0,8.017-3.589,8.017-8.017V332.96c0-4.427-3.588-8.017-8.017-8.017h-42.756
	c-4.428,0-8.017,3.589-8.017,8.017v34.205C414.731,371.592,418.319,375.181,422.747,375.181z M430.764,340.977h26.722v18.171
	h-26.722V340.977z"/>
<path d="M277.378,136.818h-42.756c-4.428,0-8.017,3.589-8.017,8.017v34.205c0,4.427,3.588,8.017,8.017,8.017h42.756
	c4.428,0,8.017-3.589,8.017-8.017v-34.205C285.394,140.407,281.805,136.818,277.378,136.818z M269.361,171.023h-26.722v-18.171
	h26.722V171.023z"/>
<path d="M277.378,230.881h-42.756c-4.428,0-8.017,3.589-8.017,8.017v34.205c0,4.427,3.588,8.017,8.017,8.017h42.756
	c4.428,0,8.017-3.589,8.017-8.017v-34.205C285.394,234.47,281.805,230.881,277.378,230.881z M269.361,265.085h-26.722v-18.171
	h26.722V265.085z"/>
<path d="M277.378,324.943h-42.756c-4.428,0-8.017,3.589-8.017,8.017v34.205c0,4.427,3.588,8.017,8.017,8.017h42.756
	c4.428,0,8.017-3.589,8.017-8.017V332.96C285.394,328.533,281.805,324.943,277.378,324.943z M269.361,359.148h-26.722v-18.171
	h26.722V359.148z"/>
<path d="M277.378,419.006h-42.756c-4.428,0-8.017,3.589-8.017,8.017v34.205c0,4.427,3.588,8.017,8.017,8.017h42.756
	c4.428,0,8.017-3.589,8.017-8.017v-34.205C285.394,422.595,281.805,419.006,277.378,419.006z M269.361,453.211h-26.722v-18.171
	h26.722V453.211z"/>
</svg>