<svg width="27" height="27" viewBox="0 0 27 27" fill="none" xmlns="http://www.w3.org/2000/svg">
<path d="M13.501 24.0754H13.5002C7.66964 24.0754 2.92608 19.332 2.92566 13.5015C2.92566 7.67075 7.66901 2.9274 13.4997 2.9274C19.3305 2.9274 24.0738 7.67096 24.0738 13.5015C24.0738 19.3318 19.3309 24.0754 13.501 24.0754ZM13.4997 3.77094C8.13434 3.77094 3.76941 8.13587 3.76941 13.5013C3.76983 18.8667 8.13497 23.2316 13.5002 23.2316H13.501C18.8658 23.2316 23.2301 18.8667 23.2301 13.5013C23.2301 8.13587 18.8652 3.77094 13.4997 3.77094Z" fill="black"/>
<path d="M13.6009 19.529C11.7132 19.529 10.1774 18.0841 10.1774 16.3084C10.1774 16.0755 10.3664 15.8865 10.5992 15.8865C10.8321 15.8865 11.0211 16.0755 11.0211 16.3084C11.0211 17.619 12.1783 18.6853 13.6009 18.6853C15.0232 18.6853 16.1804 17.619 16.1804 16.3084C16.1804 14.9979 15.0234 13.9316 13.6009 13.9316C11.7132 13.9316 10.1774 12.4869 10.1774 10.711C10.1774 8.93531 11.7132 7.4906 13.6009 7.4906C14.6157 7.4906 15.5715 7.90994 16.2237 8.64126C16.3787 8.81529 16.3635 9.08191 16.1897 9.23695C16.0159 9.39199 15.7489 9.37659 15.5942 9.20299C15.1019 8.65097 14.3754 8.33435 13.6011 8.33435C12.1785 8.33435 11.0213 9.40043 11.0213 10.711C11.0213 12.0215 12.1785 13.0878 13.6011 13.0878C15.4886 13.0878 17.0244 14.5327 17.0244 16.3084C17.0244 18.0841 15.4884 19.529 13.6009 19.529Z" fill="black"/>
<path d="M13.5068 21.0604C13.274 21.0604 13.085 20.8714 13.085 20.6386V6.38129C13.085 6.14841 13.274 5.95941 13.5068 5.95941C13.7397 5.95941 13.9287 6.14841 13.9287 6.38129V20.6386C13.9287 20.8714 13.7399 21.0604 13.5068 21.0604Z" fill="black"/>
</svg>
