<svg width="30" height="29" viewBox="0 0 30 29" fill="none" xmlns="http://www.w3.org/2000/svg">
<path d="M27.9983 24.7918L25.6384 22.4321C26.1681 21.3325 26.3439 20.0958 26.1417 18.8922C25.9395 17.6886 25.3691 16.5772 24.5092 15.7111C24.1784 15.3807 23.8092 15.0913 23.4095 14.8489V11.5637H25.3942C25.4597 11.5637 25.5245 11.5495 25.584 11.522C25.6436 11.4945 25.6964 11.4545 25.739 11.4046C25.7815 11.3547 25.8127 11.2961 25.8304 11.233C25.8481 11.1699 25.8519 11.1037 25.8415 11.0389C25.4445 9.24835 24.6087 7.58449 23.4095 6.19683V1.35936C23.4095 1.23918 23.3617 1.12393 23.2768 1.03895C23.1918 0.953975 23.0765 0.906235 22.9564 0.906235H18.8964C18.7762 0.906235 18.6609 0.953975 18.5759 1.03895C18.491 1.12393 18.4432 1.23918 18.4432 1.35936V2.42556C16.931 1.726 15.3372 1.21835 13.699 0.914437C13.6424 0.903155 13.5841 0.903155 13.5275 0.914437C2.77684 2.98046 1.39666 10.9595 1.38407 11.0401C1.37387 11.1047 1.37781 11.1708 1.39562 11.2339C1.41343 11.2969 1.44468 11.3552 1.48721 11.405C1.52975 11.4548 1.58257 11.4947 1.64204 11.5221C1.7015 11.5495 1.76619 11.5637 1.83166 11.5637H3.81635V22.0309H3.05057C2.93039 22.0309 2.81514 22.0787 2.73016 22.1636C2.64518 22.2486 2.59744 22.3639 2.59744 22.484V24.9219C2.59744 25.042 2.64518 25.1573 2.73016 25.2423C2.81514 25.3272 2.93039 25.375 3.05057 25.375H18.2602C19.6322 25.9009 21.1521 25.8895 22.5161 25.3433C22.6485 25.2909 22.7792 25.2317 22.9073 25.1692L25.2641 27.5261C25.6267 27.8887 26.1184 28.0924 26.6312 28.0924C27.144 28.0924 27.6357 27.8887 27.9983 27.5261C28.3609 27.1636 28.5646 26.6718 28.5646 26.159C28.5646 25.6463 28.3609 25.1544 27.9983 24.7918ZM4.26948 10.6575H2.40029C2.87906 8.92818 5.04432 3.50065 13.6129 1.82091C15.379 2.15064 17.0876 2.7361 18.6847 3.55883C18.7537 3.5953 18.831 3.61332 18.9091 3.61112C18.9872 3.60892 19.0633 3.58659 19.1302 3.54629C19.1971 3.50599 19.2524 3.44908 19.2908 3.3811C19.3293 3.31311 19.3495 3.23636 19.3495 3.15827V1.81249H22.5032V6.36186C22.5032 6.46945 22.5415 6.57353 22.6112 6.65549C23.6168 7.82168 24.3684 9.18466 24.8179 10.6575H22.9564C22.8362 10.6575 22.7209 10.7052 22.6359 10.7902C22.551 10.8752 22.5032 10.9904 22.5032 11.1106V14.3969C22.4946 14.3935 22.4855 14.3918 22.4768 14.3884C22.28 14.3133 22.0792 14.2489 21.8754 14.1955C21.8386 14.1858 21.802 14.1759 21.765 14.1668C21.5643 14.1177 21.3611 14.079 21.1564 14.0511C21.1206 14.0462 21.0849 14.0426 21.0491 14.0384C20.8392 14.0129 20.6282 13.9986 20.4169 13.9955C20.3964 13.9952 20.3761 13.9965 20.3555 13.9965C20.1443 13.9962 19.9333 14.0071 19.7232 14.0291C19.7064 14.0309 19.6895 14.0315 19.6727 14.0334C19.4612 14.0584 19.2513 14.0947 19.0437 14.1422C19.0103 14.1497 18.977 14.1563 18.9437 14.1644C18.7423 14.2134 18.5436 14.2731 18.3485 14.3431C18.3135 14.3556 18.2789 14.3687 18.2443 14.3819C18.0476 14.4559 17.8551 14.5407 17.6677 14.6357C17.6419 14.6487 17.617 14.6634 17.5914 14.6769C17.5433 14.7024 17.4953 14.7278 17.4478 14.7546C17.3916 14.7303 17.3309 14.7176 17.2696 14.7175H9.95619C9.83602 14.7175 9.72076 14.7652 9.63579 14.8502C9.55081 14.9352 9.50307 15.0504 9.50307 15.1706V22.0309H4.7226V11.1106C4.7226 10.9904 4.67486 10.8752 4.58988 10.7902C4.50491 10.7052 4.38965 10.6575 4.26948 10.6575ZM15.8711 16.0515C15.8373 16.0912 15.8068 16.1329 15.7743 16.1733C15.7108 16.2519 15.648 16.3306 15.5892 16.4119C15.5536 16.4612 15.521 16.512 15.487 16.5622C15.4361 16.6376 15.3854 16.713 15.3382 16.7904C15.3049 16.8448 15.274 16.9005 15.2426 16.956C15.1997 17.0317 15.1577 17.1078 15.1182 17.1852C15.0888 17.2431 15.0609 17.3015 15.0334 17.3602C14.9972 17.4379 14.9624 17.5161 14.9292 17.595C14.9043 17.6547 14.8804 17.7147 14.8574 17.775C14.827 17.8555 14.7989 17.9366 14.772 18.0181C14.752 18.0787 14.732 18.1391 14.714 18.2002C14.6893 18.284 14.6677 18.3686 14.6468 18.4534C14.6319 18.5134 14.6162 18.5731 14.6032 18.6334C14.5838 18.7238 14.5684 18.8147 14.5534 18.9059C14.5443 18.9615 14.533 19.0167 14.5253 19.0726C14.5102 19.1817 14.5003 19.2914 14.4913 19.4012C14.4881 19.4396 14.4826 19.4778 14.4801 19.5163C14.471 19.6638 14.4673 19.8115 14.4689 19.9596C14.4694 20.004 14.4734 20.0485 14.4749 20.093C14.4785 20.1972 14.4826 20.3014 14.4916 20.4052C14.4967 20.4645 14.5052 20.5234 14.5124 20.5825C14.5228 20.6718 14.5334 20.7611 14.548 20.8501C14.5584 20.9132 14.5716 20.9758 14.584 21.0385C14.6007 21.123 14.618 21.2073 14.6384 21.2912C14.6541 21.3556 14.672 21.4196 14.6899 21.4836C14.7128 21.5652 14.737 21.6468 14.7635 21.7275C14.7844 21.7912 14.8065 21.8545 14.8297 21.9175C14.8433 21.9552 14.8547 21.9935 14.8692 22.0308H14.066V15.6237H16.2728C16.2429 15.6525 16.213 15.6818 16.1832 15.7116C16.0737 15.8212 15.9702 15.9349 15.8711 16.0515ZM10.4093 22.0309V15.6237H13.1598V22.0309H10.4093ZM3.50369 24.4687V22.9372H13.6118L13.6129 22.9374L13.614 22.9372H15.317C15.3252 22.9508 15.3359 22.963 15.3442 22.9765C15.4498 23.1472 15.5644 23.3122 15.6874 23.4709C15.7111 23.5014 15.736 23.531 15.7604 23.5612C16.022 23.8912 16.3198 24.1908 16.6482 24.4544C16.6537 24.4589 16.6586 24.4643 16.6641 24.4687H3.50369ZM22.1818 24.5008C21.0002 24.9731 19.6823 24.9729 18.5009 24.5004C17.4259 24.0715 16.5337 23.2819 15.9773 22.267C15.4658 21.3206 15.2721 20.2348 15.4245 19.1698C15.577 18.1049 16.0676 17.1171 16.824 16.3521C17.0383 16.1352 17.2738 15.9403 17.5269 15.7702C17.7049 15.6486 17.8909 15.5391 18.0835 15.4423C18.1038 15.432 18.1235 15.4204 18.1438 15.4105C18.3259 15.3219 18.5132 15.2446 18.7048 15.179C18.7354 15.1684 18.7658 15.1572 18.7966 15.1473C18.9837 15.0869 19.1742 15.0375 19.3671 14.9995C19.4019 14.9926 19.4368 14.9861 19.4718 14.98C19.6645 14.9456 19.859 14.9225 20.0544 14.9107C20.0876 14.9088 20.121 14.9084 20.1543 14.9071C20.2977 14.9015 20.4412 14.9075 20.5847 14.9141C20.6791 14.9187 20.7735 14.9218 20.8676 14.9314C20.9935 14.9443 21.1184 14.9663 21.2432 14.9888C21.3328 15.0049 21.4228 15.0177 21.5115 15.0386C21.6474 15.0708 21.7806 15.1145 21.9139 15.1582C21.9885 15.1828 22.0646 15.2016 22.1383 15.2298C22.3418 15.3071 22.54 15.3979 22.7314 15.5017L22.7405 15.5062C23.1551 15.7322 23.5349 16.0171 23.8678 16.352C24.6311 17.1199 25.1242 18.1151 25.2727 19.1877C25.4211 20.2602 25.2169 21.3519 24.6908 22.2983L24.6868 22.3058C24.4644 22.711 24.1849 23.082 23.8569 23.4077C23.5357 23.7295 23.1693 24.0029 22.7694 24.2192C22.5802 24.3264 22.3839 24.4205 22.1818 24.5008ZM27.3576 26.8853C27.1647 27.0775 26.9035 27.1854 26.6312 27.1854C26.3589 27.1854 26.0977 27.0775 25.9048 26.8853L23.7191 24.6991C23.7397 24.6847 23.7596 24.667 23.7801 24.6523C23.8662 24.5904 23.9519 24.5242 24.0368 24.4555C24.0749 24.4248 24.1133 24.3955 24.1511 24.3634C24.2722 24.2604 24.3924 24.1522 24.5112 24.0349C24.6252 23.9195 24.7316 23.8009 24.8336 23.6808C24.865 23.6436 24.8941 23.6056 24.9245 23.568C24.9937 23.4822 25.0604 23.3956 25.1235 23.3076C25.1384 23.2868 25.1561 23.2669 25.1707 23.2459L27.3576 25.4325C27.5498 25.6254 27.6577 25.8866 27.6577 26.1589C27.6577 26.4312 27.5498 26.6924 27.3576 26.8853Z" fill="black"/>
<path d="M9.95673 12.3751H17.2691C17.3893 12.3751 17.5045 12.3273 17.5895 12.2423C17.6745 12.1574 17.7222 12.0421 17.7222 11.9219V10.703C17.7222 9.61317 17.2893 8.56795 16.5186 7.79731C15.748 7.02666 14.7028 6.59372 13.6129 6.59372C12.523 6.59372 11.4778 7.02666 10.7072 7.79731C9.93654 8.56795 9.5036 9.61317 9.5036 10.703V11.9219C9.5036 12.0421 9.55134 12.1574 9.63632 12.2423C9.7213 12.3273 9.83655 12.3751 9.95673 12.3751ZM10.4099 10.703C10.4099 9.85352 10.7473 9.03881 11.348 8.43812C11.9487 7.83743 12.7634 7.49997 13.6129 7.49997C14.4624 7.49997 15.2771 7.83743 15.8778 8.43812C16.4785 9.03881 16.816 9.85352 16.816 10.703V11.4688H10.4099V10.703Z" fill="black"/>
</svg>
