<?xml version="1.0" encoding="iso-8859-1"?>
<!-- Uploaded to: SVG Repo, www.svgrepo.com, Generator: SVG Repo Mixer Tools -->
<svg version="1.1" id="Layer_1" xmlns="http://www.w3.org/2000/svg" xmlns:xlink="http://www.w3.org/1999/xlink" 
	 viewBox="0 0 512.001 512.001" xml:space="preserve">
<polygon style="fill:#FF8C78;" points="434.651,502.184 77.351,502.184 77.351,176.294 256.001,34.29 435.303,176.807 "/>
<polygon style="fill:#DF7A6E;" points="290.393,61.626 256.001,34.29 77.351,176.294 77.351,502.184 103.936,502.184 
	103.936,203.329 "/>
<path style="fill:#B2B2B2;" d="M484.346,225.483L256.001,46.069L27.655,225.483l-19.71-25.085l238.2-187.157
	c5.784-4.543,13.926-4.544,19.71,0l238.2,187.157L484.346,225.483z"/>
<rect x="213.466" y="349.06" style="fill:#CCCCCC;" width="85.072" height="153.129"/>
<rect x="213.466" y="349.06" style="fill:#B2B2B2;" width="25.521" height="153.129"/>
<circle style="fill:#C4DF64;" cx="51.829" cy="468.16" r="34.029"/>
<path style="fill:#96CA63;" d="M64.59,489.423c-18.793,0-34.029-15.235-34.029-34.029c0-6.119,1.623-11.856,4.45-16.818
	c-10.277,5.856-17.211,16.904-17.211,29.578c0,18.793,15.235,34.029,34.029,34.029c12.675,0,23.722-6.934,29.578-17.211
	C76.446,487.801,70.709,489.423,64.59,489.423z"/>
<circle style="fill:#C4DF64;" cx="145.409" cy="468.16" r="34.029"/>
<path style="fill:#96CA63;" d="M158.169,489.423c-18.793,0-34.029-15.235-34.029-34.029c0-6.119,1.623-11.856,4.45-16.818
	c-10.277,5.856-17.211,16.904-17.211,29.578c0,18.793,15.235,34.029,34.029,34.029c12.675,0,23.722-6.934,29.578-17.211
	C170.025,487.801,164.288,489.423,158.169,489.423z"/>
<circle style="fill:#C4DF64;" cx="366.595" cy="468.16" r="34.029"/>
<path style="fill:#96CA63;" d="M379.355,489.423c-18.793,0-34.029-15.235-34.029-34.029c0-6.119,1.623-11.856,4.45-16.818
	c-10.277,5.856-17.211,16.904-17.211,29.578c0,18.793,15.235,34.029,34.029,34.029c12.675,0,23.722-6.934,29.578-17.211
	C391.211,487.801,385.474,489.423,379.355,489.423z"/>
<circle style="fill:#C4DF64;" cx="460.174" cy="468.16" r="34.029"/>
<path style="fill:#96CA63;" d="M472.934,489.423c-18.793,0-34.029-15.235-34.029-34.029c0-6.119,1.623-11.856,4.45-16.818
	c-10.277,5.856-17.211,16.904-17.211,29.578c0,18.793,15.235,34.029,34.029,34.029c12.675,0,23.722-6.934,29.578-17.211
	C484.789,487.801,479.052,489.423,472.934,489.423z"/>
<g>
	<rect x="111.38" y="221.452" style="fill:#6DDAE1;" width="102.086" height="85.072"/>
	<rect x="298.538" y="221.452" style="fill:#6DDAE1;" width="102.086" height="85.072"/>
	<polygon style="fill:#6DDAE1;" points="377.937,221.448 341.073,221.448 298.537,263.984 298.537,300.848 	"/>
	<polygon style="fill:#6DDAE1;" points="319.805,306.519 355.251,306.519 400.623,261.148 400.623,225.701 	"/>
</g>
<g>
	<polygon style="fill:#4FC4D3;" points="377.937,221.448 298.537,300.848 298.537,306.519 319.805,306.519 400.623,225.701 
		400.623,221.448 	"/>
	<polygon style="fill:#4FC4D3;" points="298.537,221.448 298.537,263.984 341.073,221.448 	"/>
	<polygon style="fill:#4FC4D3;" points="355.251,306.519 400.623,306.519 400.623,261.148 	"/>
	<polygon style="fill:#4FC4D3;" points="190.78,221.448 111.379,300.848 111.379,306.519 132.647,306.519 213.465,225.701 
		213.465,221.448 	"/>
	<polygon style="fill:#4FC4D3;" points="111.379,221.448 111.379,263.984 153.915,221.448 	"/>
	<polygon style="fill:#4FC4D3;" points="168.093,306.519 213.465,306.519 213.465,261.148 	"/>
</g>
<rect x="221.973" y="110.859" style="fill:#6DDAE1;" width="68.057" height="68.057"/>
<path d="M111.379,213.472c-4.405,0-7.975,3.571-7.975,7.975v85.072c0,4.405,3.571,7.975,7.975,7.975h102.086
	c4.405,0,7.975-3.571,7.975-7.975v-85.072c0-4.405-3.571-7.975-7.975-7.975H111.379z M119.355,229.423h35.092v69.121h-35.092
	V229.423z M205.49,298.544h-35.092v-69.121h35.092V298.544z"/>
<path d="M290.561,221.448v85.072c0,4.405,3.57,7.975,7.975,7.975h102.086c4.406,0,7.975-3.571,7.975-7.975v-85.072
	c0-4.405-3.57-7.975-7.975-7.975H298.537C294.131,213.472,290.561,217.043,290.561,221.448z M392.647,298.544h-35.092v-69.121
	h35.092V298.544z M306.512,229.423h35.092v69.121h-35.092V229.423z"/>
<path d="M290.03,102.879h-68.057c-4.405,0-7.975,3.571-7.975,7.975v68.057c0,4.405,3.571,7.975,7.975,7.975h68.057
	c4.406,0,7.975-3.571,7.975-7.975v-68.057C298.005,106.45,294.434,102.879,290.03,102.879z M282.054,136.908h-18.078V118.83h18.078
	V136.908z M248.026,118.83v18.078h-18.078V118.83H248.026z M229.948,152.859h18.078v18.078h-18.078V152.859z M263.977,170.937
	v-18.078h18.078v18.078H263.977z"/>
<path d="M238.987,409.137c-4.405,0-7.975,3.571-7.975,7.975v8.507c0,4.405,3.571,7.975,7.975,7.975c4.405,0,7.975-3.571,7.975-7.975
	v-8.507C246.962,412.708,243.391,409.137,238.987,409.137z"/>
<path d="M502.709,494.209h-9.625c5.685-7.166,9.093-16.217,9.093-26.053c0-23.161-18.843-42.004-42.004-42.004
	c-6.261,0-12.202,1.388-17.546,3.855V202.847l36.792,28.908c3.419,2.686,8.515,2.073,11.199-1.344l19.71-25.085
	c2.684-3.417,2.069-8.516-1.344-11.199l-81.48-64.021c-3.463-2.721-8.477-2.12-11.199,1.344c-2.721,3.463-2.119,8.477,1.344,11.199
	l75.21,59.093l-9.856,12.543L260.929,39.798c-2.893-2.272-6.963-2.272-9.856,0L28.999,214.285l-9.856-12.543l231.928-182.23
	c2.902-2.28,6.957-2.28,9.857,0l126.258,99.203c3.461,2.72,8.477,2.119,11.199-1.344c2.721-3.463,2.119-8.477-1.344-11.199
	L270.783,6.97c-8.705-6.838-20.86-6.838-29.566,0L3.017,194.127c-3.413,2.683-4.028,7.783-1.344,11.199l19.71,25.085
	c2.721,3.463,7.735,4.064,11.199,1.344l36.792-28.908V366.07c0,4.405,3.571,7.975,7.975,7.975s7.975-3.571,7.975-7.975V190.314
	L256,56.211l170.675,134.103V442.28c0,0.18,0.015,0.356,0.027,0.533c-5.351,7.049-8.534,15.83-8.534,25.343
	c0,9.836,3.408,18.887,9.093,26.053h-27.756c5.685-7.166,9.093-16.217,9.093-26.053c0-23.161-18.843-42.004-42.004-42.004
	s-42.004,18.843-42.004,42.004c0,9.836,3.408,18.887,9.093,26.053h-27.171V349.055c0-4.405-3.57-7.975-7.975-7.975h-85.072
	c-4.405,0-7.975,3.571-7.975,7.975v145.153h-27.171c5.685-7.166,9.093-16.217,9.093-26.053c0-23.161-18.843-42.004-42.004-42.004
	s-42.004,18.843-42.004,42.004c0,9.836,3.408,18.887,9.093,26.053H84.74c5.685-7.166,9.093-16.217,9.093-26.053
	c0-9.551-3.21-18.364-8.601-25.427c0.055-0.379,0.094-0.764,0.094-1.158v-32.965c0-4.405-3.571-7.975-7.975-7.975
	s-7.975,3.571-7.975,7.975v21.401c-5.344-2.467-11.285-3.855-17.546-3.855c-23.161,0-42.004,18.843-42.004,42.004
	c0,9.836,3.408,18.887,9.093,26.053H9.294c-4.405,0-7.975,3.571-7.975,7.975c0,4.405,3.571,7.975,7.975,7.975h493.415
	c4.406,0,7.975-3.571,7.975-7.975C510.684,497.78,507.113,494.209,502.709,494.209z M434.12,468.155
	c0-14.365,11.687-26.053,26.053-26.053c14.366,0,26.053,11.688,26.053,26.053c0,14.365-11.687,26.053-26.053,26.053
	C445.806,494.209,434.12,482.521,434.12,468.155z M340.541,468.155c0-14.365,11.687-26.053,26.053-26.053
	c14.366,0,26.053,11.688,26.053,26.053c0,14.365-11.687,26.053-26.053,26.053C352.228,494.209,340.541,482.521,340.541,468.155z
	 M119.355,468.155c0-14.365,11.688-26.053,26.053-26.053c14.365,0,26.053,11.688,26.053,26.053
	c0,14.365-11.688,26.053-26.053,26.053C131.043,494.209,119.355,482.521,119.355,468.155z M25.776,468.155
	c0-14.365,11.688-26.053,26.053-26.053s26.053,11.688,26.053,26.053c0,14.365-11.688,26.053-26.053,26.053
	S25.776,482.521,25.776,468.155z M221.441,494.209V357.031h69.121v137.178H221.441z"/>
</svg>