<?xml version="1.0" encoding="iso-8859-1"?>
<!-- Uploaded to: SVG Repo, www.svgrepo.com, Generator: SVG Repo Mixer Tools -->
<svg version="1.1" id="Layer_1" xmlns="http://www.w3.org/2000/svg" xmlns:xlink="http://www.w3.org/1999/xlink" 
	 viewBox="0 0 512 512" xml:space="preserve">
<rect x="60.479" y="8.649" style="fill:#999999;" width="85.293" height="144.998"/>
<rect x="115.924" y="8.649" style="fill:#808080;" width="29.853" height="144.998"/>
<rect x="43.42" y="8.649" style="fill:#E5E5E5;" width="119.41" height="34.117"/>
<polygon style="fill:#6DDAE1;" points="56.214,503.349 56.214,196.294 9.303,196.294 256.653,8.649 504.004,196.294 
	457.092,196.294 457.092,503.349 "/>
<polygon style="fill:#4FC4D3;" points="9.303,196.294 56.214,196.294 56.214,503.349 90.865,503.349 90.865,134.42 "/>
<path style="fill:#C4DF64;" d="M414.446,34.237l29.583,29.583L320.137,175.322l-23.388-23.388
	c-6.054-6.055-15.803-6.266-22.114-0.481l-91.064,83.475l-14.761-14.76c-5.953-5.955-15.504-6.272-21.839-0.727L7.96,341.292
	l22.667,22.667l126.145-110.593l15.008,15.008c6.054,6.055,15.803,6.266,22.114,0.481l91.064-83.475l23.29,23.289
	c6.014,6.015,15.684,6.269,22.007,0.579l136.421-122.78L491.21,111V34.237H414.446z"/>
<circle style="fill:#FFD791;" cx="256.658" cy="375.406" r="76.764"/>
<path style="fill:#F8BE73;" d="M275.844,432.982c-42.396,0-76.764-34.368-76.764-76.764c0-16.295,5.092-31.393,13.751-43.821
	c-19.905,13.87-32.942,36.912-32.942,63.012c0,42.396,34.368,76.764,76.764,76.764c26.1,0,49.143-13.037,63.012-32.942
	C307.237,427.89,292.14,432.982,275.844,432.982z"/>
<path d="M508.836,189.923l-78.704-59.706c-0.02-0.016-0.043-0.028-0.064-0.044l36.319-32.686l19.169,19.169
	c4.934,4.935,13.65,1.316,13.65-5.654V34.238c0-4.416-3.58-7.996-7.996-7.996h-76.764c-6.97,0-10.589,8.716-5.654,13.65
	l23.623,23.623l-41.261,37.133L261.486,2.278c-2.857-2.168-6.809-2.168-9.665,0L153.77,76.662v-25.9h9.062
	c4.416,0,7.996-3.58,7.996-7.996V8.649c0-4.416-3.58-7.996-7.996-7.996H43.421c-4.416,0-7.996,3.58-7.996,7.996v34.117
	c0,4.416,3.58,7.996,7.996,7.996h9.062V153.5L4.47,189.923c-2.736,2.075-3.841,5.666-2.746,8.92
	c1.095,3.255,4.145,5.447,7.578,5.447h38.915v91.079l-45.528,39.91c-3.426,3.003-3.605,8.446-0.383,11.667l22.667,22.667
	c2.939,2.939,7.799,3.1,10.926,0.358l12.321-10.801v33.298c0,4.416,3.58,7.996,7.996,7.996s7.996-3.58,7.996-7.996v-47.266
	c0-0.017-0.002-0.033-0.002-0.05l92.204-80.837l9.713,9.713c9.107,9.107,23.677,9.424,33.173,0.722l41.938-38.443
	c3.255-2.984,3.476-8.042,0.492-11.298c-2.984-3.256-8.042-3.475-11.298-0.492l-41.938,38.444
	c-3.167,2.901-8.022,2.795-11.057-0.241l-15.008-15.008c-2.979-2.979-7.758-3.137-10.926-0.358L30.986,353.01l-11.333-11.333
	L152.236,225.46c3.156-2.762,7.953-2.602,10.919,0.365l14.761,14.76c3.027,3.027,7.901,3.133,11.057,0.241l91.064-83.475
	c3.167-2.901,8.022-2.795,11.057,0.241l23.388,23.388c3.007,3.008,7.842,3.135,11.003,0.289L449.378,69.763
	c3.354-3.019,3.499-8.405,0.305-11.598L433.75,42.233h49.464v49.463l-10.882-10.881c-3.007-3.007-7.842-3.135-11.003-0.289
	l-136.421,122.78c-3.163,2.846-7.995,2.719-11.004-0.289l-23.29-23.289c-3.027-3.028-7.901-3.133-11.057-0.241l-15.512,14.218
	c-3.255,2.984-3.476,8.042-0.491,11.298s8.042,3.475,11.298,0.492l9.867-9.045l17.876,17.875c9.024,9.025,23.524,9.407,33.011,0.869
	l82.814-74.532c0.513,0.867,61.813,47.639,61.813,47.639h-23.14c-4.416,0-7.996,3.58-7.996,7.996v299.059H64.211v-51.709
	c0-4.416-3.58-7.996-7.996-7.996s-7.996,3.58-7.996,7.996v59.705c0,4.416,3.58,7.996,7.996,7.996h400.878
	c4.416,0,7.996-3.58,7.996-7.996V204.292h38.915c3.434,0,6.484-2.192,7.578-5.447C512.677,195.589,511.571,191.998,508.836,189.923z
	 M51.417,16.645h103.418V34.77H51.417C51.417,34.77,51.417,16.645,51.417,16.645z M68.475,50.762h69.301v38.032l-69.301,52.573
	V50.762z M320.426,164.303l-18.024-18.022c-9.107-9.108-23.678-9.425-33.173-0.722l-85.421,78.302l-9.347-9.346
	c-8.898-8.901-23.29-9.379-32.764-1.087L64.21,281.351v-85.058c0-4.416-3.58-7.996-7.996-7.996H33.074L256.653,18.685
	l122.399,92.854L320.426,164.303z"/>
<path d="M341.413,375.409c0-46.736-38.024-84.76-84.76-84.76s-84.76,38.024-84.76,84.76s38.024,84.76,84.76,84.76
	S341.413,422.146,341.413,375.409z M187.886,375.409c0-37.918,30.849-68.768,68.768-68.768c37.918,0,68.768,30.849,68.768,68.768
	s-30.849,68.768-68.768,68.768S187.886,413.327,187.886,375.409z"/>
<path d="M264.65,430.85v-9.062h6.93c10.287,0,18.658-8.37,18.658-18.658v-17.059c0-10.287-8.37-18.658-18.658-18.658h-6.93v-22.389
	h17.592c4.416,0,7.996-3.58,7.996-7.996s-3.58-7.996-7.996-7.996H264.65v-9.062c0-4.416-3.58-7.996-7.996-7.996
	c-4.416,0-7.996,3.58-7.996,7.996v9.062h-6.93c-10.287,0-18.658,8.37-18.658,18.658v17.059c0,10.287,8.37,18.658,18.658,18.658h6.93
	v22.389h-17.592c-4.416,0-7.996,3.58-7.996,7.996s3.58,7.996,7.996,7.996h17.592v9.062c0,4.416,3.58,7.996,7.996,7.996
	C261.069,438.846,264.65,435.266,264.65,430.85z M241.727,367.413c-1.469,0-2.665-1.196-2.665-2.665v-17.059
	c0-1.469,1.196-2.665,2.665-2.665h6.93v22.389H241.727z M264.65,383.405h6.93c1.469,0,2.665,1.196,2.665,2.665v17.059
	c0,1.469-1.196,2.665-2.665,2.665h-6.93V383.405L264.65,383.405z"/>
</svg>