<?xml version="1.0" encoding="iso-8859-1"?>
<!-- Uploaded to: SVG Repo, www.svgrepo.com, Generator: SVG Repo Mixer Tools -->
<svg height="800px" width="800px" version="1.1" id="Layer_1" xmlns="http://www.w3.org/2000/svg" xmlns:xlink="http://www.w3.org/1999/xlink" 
	 viewBox="0 0 512 512" xml:space="preserve">
<g transform="translate(1 1)">
	<polygon style="fill:#FFE100;" points="212.333,502.467 502.467,502.467 502.467,7.533 212.333,7.533 	"/>
	<polygon style="fill:#FFA800;" points="186.733,502.467 476.867,502.467 476.867,7.533 186.733,7.533 	"/>
	<polygon style="fill:#FFFFFF;" points="16.067,502.467 306.2,502.467 306.2,7.533 16.067,7.533 	"/>
	<polygon style="fill:#FFE100;" points="41.667,502.467 451.267,502.467 451.267,7.533 41.667,7.533 	"/>
	<path style="fill:#FFA800;" d="M263.533,75.8H178.2c-9.387,0-17.067-7.68-17.067-17.067s7.68-17.067,17.067-17.067h85.333
		c9.387,0,17.067,7.68,17.067,17.067S272.92,75.8,263.533,75.8"/>
	<path d="M476.867,511h-460.8c-5.12,0-8.533-3.413-8.533-8.533V7.533C7.533,2.413,10.947-1,16.067-1h460.8
		c5.12,0,8.533,3.413,8.533,8.533v494.933C485.4,507.587,481.987,511,476.867,511z M24.6,493.933h443.733V16.067H24.6V493.933z"/>
	<path d="M263.533,84.333H178.2c-14.507,0-25.6-11.093-25.6-25.6s11.093-25.6,25.6-25.6h85.333c14.507,0,25.6,11.093,25.6,25.6
		S278.04,84.333,263.533,84.333z M178.2,50.2c-5.12,0-8.533,3.413-8.533,8.533s3.413,8.533,8.533,8.533h85.333
		c5.12,0,8.533-3.413,8.533-8.533s-3.413-8.533-8.533-8.533H178.2z"/>
	<path d="M220.867,511h-153.6c-5.12,0-8.533-3.413-8.533-8.533V109.933c0-5.12,3.413-8.533,8.533-8.533h153.6
		c5.12,0,8.533,3.413,8.533,8.533v392.533C229.4,507.587,225.987,511,220.867,511z M75.8,493.933h136.533V118.467H75.8V493.933z"/>
	<path d="M442.733,289.133c-2.56,0-4.267-0.853-5.973-2.56l-11.093-11.093l-11.093,11.093c-3.413,3.413-8.533,3.413-11.947,0
		c-3.413-3.413-3.413-8.533,0-11.947l17.067-17.067c3.413-3.413,8.533-3.413,11.947,0l17.067,17.067
		c3.413,3.413,3.413,8.533,0,11.947C447,288.28,445.293,289.133,442.733,289.133z"/>
	<path d="M425.667,357.4c-2.56,0-4.267-0.853-5.973-2.56l-17.067-17.067c-3.413-3.413-3.413-8.533,0-11.947
		c3.413-3.413,8.533-3.413,11.947,0l11.093,11.093l11.093-11.093c3.413-3.413,8.533-3.413,11.947,0
		c3.413,3.413,3.413,8.533,0,11.947L431.64,354.84C429.933,356.547,428.227,357.4,425.667,357.4z"/>
	<path d="M374.467,511h-153.6c-5.12,0-8.533-3.413-8.533-8.533V109.933c0-5.12,3.413-8.533,8.533-8.533h153.6
		c5.12,0,8.533,3.413,8.533,8.533v392.533C383,507.587,379.587,511,374.467,511z M229.4,493.933h136.533V118.467H229.4V493.933z"/>
</g>
</svg>