<?xml version="1.0" encoding="iso-8859-1"?>
<!-- Uploaded to: SVG Repo, www.svgrepo.com, Generator: SVG Repo Mixer Tools -->
<svg height="800px" width="800px" version="1.1" id="Layer_1" xmlns="http://www.w3.org/2000/svg" xmlns:xlink="http://www.w3.org/1999/xlink" 
	 viewBox="0 0 512 512" xml:space="preserve">
<g transform="translate(1 1)">
	<g>
		<polygon style="fill:#FFA800;" points="92.867,41.667 212.333,41.667 212.333,7.533 92.867,7.533 		"/>
		<polygon style="fill:#FFA800;" points="340.333,109.933 459.8,109.933 459.8,75.8 340.333,75.8 		"/>
		<polygon style="fill:#FFA800;" points="297.667,502.467 502.467,502.467 502.467,109.933 297.667,109.933 		"/>
	</g>
	<polygon style="fill:#FFE100;" points="297.667,502.467 476.867,502.467 476.867,109.933 297.667,109.933 	"/>
	<g>
		<polygon style="fill:#63D3FD;" points="297.667,195.267 340.333,195.267 340.333,144.067 297.667,144.067 		"/>
		<polygon style="fill:#63D3FD;" points="374.467,195.267 425.667,195.267 425.667,144.067 374.467,144.067 		"/>
		<polygon style="fill:#63D3FD;" points="297.667,280.6 340.333,280.6 340.333,229.4 297.667,229.4 		"/>
		<polygon style="fill:#63D3FD;" points="374.467,280.6 425.667,280.6 425.667,229.4 374.467,229.4 		"/>
		<polygon style="fill:#63D3FD;" points="297.667,365.933 340.333,365.933 340.333,314.733 297.667,314.733 		"/>
		<polygon style="fill:#63D3FD;" points="459.8,195.267 502.467,195.267 502.467,144.067 459.8,144.067 		"/>
		<polygon style="fill:#63D3FD;" points="459.8,280.6 502.467,280.6 502.467,229.4 459.8,229.4 		"/>
		<polygon style="fill:#63D3FD;" points="459.8,365.933 502.467,365.933 502.467,314.733 459.8,314.733 		"/>
		<polygon style="fill:#63D3FD;" points="459.8,451.267 502.467,451.267 502.467,400.067 459.8,400.067 		"/>
		<polygon style="fill:#63D3FD;" points="374.467,365.933 425.667,365.933 425.667,314.733 374.467,314.733 		"/>
		<polygon style="fill:#63D3FD;" points="297.667,451.267 340.333,451.267 340.333,400.067 297.667,400.067 		"/>
		<polygon style="fill:#63D3FD;" points="374.467,451.267 425.667,451.267 425.667,400.067 374.467,400.067 		"/>
	</g>
	<polygon style="fill:#FFFFFF;" points="7.533,502.467 297.667,502.467 297.667,41.667 7.533,41.667 	"/>
	<polygon style="fill:#FFE100;" points="33.133,502.467 297.667,502.467 297.667,41.667 33.133,41.667 	"/>
	<g>
		<polygon style="fill:#63D3FD;" points="84.333,127 135.533,127 135.533,75.8 84.333,75.8 		"/>
		<polygon style="fill:#63D3FD;" points="169.667,127 220.867,127 220.867,75.8 169.667,75.8 		"/>
		<polygon style="fill:#63D3FD;" points="84.333,212.333 135.533,212.333 135.533,161.133 84.333,161.133 		"/>
		<polygon style="fill:#63D3FD;" points="169.667,212.333 220.867,212.333 220.867,161.133 169.667,161.133 		"/>
		<polygon style="fill:#63D3FD;" points="84.333,297.667 135.533,297.667 135.533,246.467 84.333,246.467 		"/>
		<polygon style="fill:#63D3FD;" points="169.667,297.667 220.867,297.667 220.867,246.467 169.667,246.467 		"/>
		<polygon style="fill:#63D3FD;" points="84.333,383 135.533,383 135.533,331.8 84.333,331.8 		"/>
		<polygon style="fill:#63D3FD;" points="169.667,383 220.867,383 220.867,331.8 169.667,331.8 		"/>
		<polygon style="fill:#63D3FD;" points="7.533,127 50.2,127 50.2,75.8 7.533,75.8 		"/>
		<polygon style="fill:#63D3FD;" points="7.533,212.333 50.2,212.333 50.2,161.133 7.533,161.133 		"/>
		<polygon style="fill:#63D3FD;" points="7.533,297.667 50.2,297.667 50.2,246.467 7.533,246.467 		"/>
		<polygon style="fill:#63D3FD;" points="7.533,383 50.2,383 50.2,331.8 7.533,331.8 		"/>
		<polygon style="fill:#63D3FD;" points="7.533,468.333 50.2,468.333 50.2,417.133 7.533,417.133 		"/>
		<polygon style="fill:#63D3FD;" points="84.333,468.333 135.533,468.333 135.533,417.133 84.333,417.133 		"/>
		<polygon style="fill:#63D3FD;" points="169.667,468.333 220.867,468.333 220.867,417.133 169.667,417.133 		"/>
		<polygon style="fill:#63D3FD;" points="255,127 297.667,127 297.667,75.8 255,75.8 		"/>
		<polygon style="fill:#63D3FD;" points="255,212.333 297.667,212.333 297.667,161.133 255,161.133 		"/>
		<polygon style="fill:#63D3FD;" points="255,297.667 297.667,297.667 297.667,246.467 255,246.467 		"/>
		<polygon style="fill:#63D3FD;" points="255,383 297.667,383 297.667,331.8 255,331.8 		"/>
		<polygon style="fill:#63D3FD;" points="255,468.333 297.667,468.333 297.667,417.133 255,417.133 		"/>
	</g>
	<path d="M297.667,511H7.533C2.413,511-1,507.587-1,502.467v-460.8c0-5.12,3.413-8.533,8.533-8.533h290.133
		c5.12,0,8.533,3.413,8.533,8.533v460.8C306.2,507.587,302.787,511,297.667,511z M16.067,493.933h273.067V50.2H16.067V493.933z"/>
	<path d="M212.333,50.2H92.867c-5.12,0-8.533-3.413-8.533-8.533V7.533c0-5.12,3.413-8.533,8.533-8.533h119.467
		c5.12,0,8.533,3.413,8.533,8.533v34.133C220.867,46.787,217.453,50.2,212.333,50.2z M101.4,33.133h102.4V16.067H101.4V33.133z"/>
	<path d="M50.2,135.533H7.533C2.413,135.533-1,132.12-1,127V75.8c0-5.12,3.413-8.533,8.533-8.533H50.2
		c5.12,0,8.533,3.413,8.533,8.533V127C58.733,132.12,55.32,135.533,50.2,135.533z M16.067,118.467h25.6V84.333h-25.6V118.467z"/>
	<path d="M135.533,135.533h-51.2c-5.12,0-8.533-3.413-8.533-8.533V75.8c0-5.12,3.413-8.533,8.533-8.533h51.2
		c5.12,0,8.533,3.413,8.533,8.533V127C144.067,132.12,140.653,135.533,135.533,135.533z M92.867,118.467H127V84.333H92.867V118.467z
		"/>
	<path d="M220.867,135.533h-51.2c-5.12,0-8.533-3.413-8.533-8.533V75.8c0-5.12,3.413-8.533,8.533-8.533h51.2
		c5.12,0,8.533,3.413,8.533,8.533V127C229.4,132.12,225.987,135.533,220.867,135.533z M178.2,118.467h34.133V84.333H178.2V118.467z"
		/>
	<path d="M50.2,220.867H7.533c-5.12,0-8.533-3.413-8.533-8.533v-51.2c0-5.12,3.413-8.533,8.533-8.533H50.2
		c5.12,0,8.533,3.413,8.533,8.533v51.2C58.733,217.453,55.32,220.867,50.2,220.867z M16.067,203.8h25.6v-34.133h-25.6V203.8z"/>
	<path d="M135.533,220.867h-51.2c-5.12,0-8.533-3.413-8.533-8.533v-51.2c0-5.12,3.413-8.533,8.533-8.533h51.2
		c5.12,0,8.533,3.413,8.533,8.533v51.2C144.067,217.453,140.653,220.867,135.533,220.867z M92.867,203.8H127v-34.133H92.867V203.8z"
		/>
	<path d="M220.867,220.867h-51.2c-5.12,0-8.533-3.413-8.533-8.533v-51.2c0-5.12,3.413-8.533,8.533-8.533h51.2
		c5.12,0,8.533,3.413,8.533,8.533v51.2C229.4,217.453,225.987,220.867,220.867,220.867z M178.2,203.8h34.133v-34.133H178.2V203.8z"
		/>
	<path d="M50.2,306.2H7.533c-5.12,0-8.533-3.413-8.533-8.533v-51.2c0-5.12,3.413-8.533,8.533-8.533H50.2
		c5.12,0,8.533,3.413,8.533,8.533v51.2C58.733,302.787,55.32,306.2,50.2,306.2z M16.067,289.133h25.6V255h-25.6V289.133z"/>
	<path d="M135.533,306.2h-51.2c-5.12,0-8.533-3.413-8.533-8.533v-51.2c0-5.12,3.413-8.533,8.533-8.533h51.2
		c5.12,0,8.533,3.413,8.533,8.533v51.2C144.067,302.787,140.653,306.2,135.533,306.2z M92.867,289.133H127V255H92.867V289.133z"/>
	<path d="M220.867,306.2h-51.2c-5.12,0-8.533-3.413-8.533-8.533v-51.2c0-5.12,3.413-8.533,8.533-8.533h51.2
		c5.12,0,8.533,3.413,8.533,8.533v51.2C229.4,302.787,225.987,306.2,220.867,306.2z M178.2,289.133h34.133V255H178.2V289.133z"/>
	<path d="M50.2,391.533H7.533C2.413,391.533-1,388.12-1,383v-51.2c0-5.12,3.413-8.533,8.533-8.533H50.2
		c5.12,0,8.533,3.413,8.533,8.533V383C58.733,388.12,55.32,391.533,50.2,391.533z M16.067,374.467h25.6v-34.133h-25.6V374.467z"/>
	<path d="M135.533,391.533h-51.2c-5.12,0-8.533-3.413-8.533-8.533v-51.2c0-5.12,3.413-8.533,8.533-8.533h51.2
		c5.12,0,8.533,3.413,8.533,8.533V383C144.067,388.12,140.653,391.533,135.533,391.533z M92.867,374.467H127v-34.133H92.867V374.467
		z"/>
	<path d="M220.867,391.533h-51.2c-5.12,0-8.533-3.413-8.533-8.533v-51.2c0-5.12,3.413-8.533,8.533-8.533h51.2
		c5.12,0,8.533,3.413,8.533,8.533V383C229.4,388.12,225.987,391.533,220.867,391.533z M178.2,374.467h34.133v-34.133H178.2V374.467z
		"/>
	<path d="M50.2,476.867H7.533c-5.12,0-8.533-3.413-8.533-8.533v-51.2c0-5.12,3.413-8.533,8.533-8.533H50.2
		c5.12,0,8.533,3.413,8.533,8.533v51.2C58.733,473.453,55.32,476.867,50.2,476.867z M16.067,459.8h25.6v-34.133h-25.6V459.8z"/>
	<path d="M135.533,476.867h-51.2c-5.12,0-8.533-3.413-8.533-8.533v-51.2c0-5.12,3.413-8.533,8.533-8.533h51.2
		c5.12,0,8.533,3.413,8.533,8.533v51.2C144.067,473.453,140.653,476.867,135.533,476.867z M92.867,459.8H127v-34.133H92.867V459.8z"
		/>
	<path d="M220.867,476.867h-51.2c-5.12,0-8.533-3.413-8.533-8.533v-51.2c0-5.12,3.413-8.533,8.533-8.533h51.2
		c5.12,0,8.533,3.413,8.533,8.533v51.2C229.4,473.453,225.987,476.867,220.867,476.867z M178.2,459.8h34.133v-34.133H178.2V459.8z"
		/>
	<path d="M297.667,135.533H255c-5.12,0-8.533-3.413-8.533-8.533V75.8c0-5.12,3.413-8.533,8.533-8.533h42.667
		c5.12,0,8.533,3.413,8.533,8.533V127C306.2,132.12,302.787,135.533,297.667,135.533z M263.533,118.467h25.6V84.333h-25.6V118.467z"
		/>
	<path d="M297.667,220.867H255c-5.12,0-8.533-3.413-8.533-8.533v-51.2c0-5.12,3.413-8.533,8.533-8.533h42.667
		c5.12,0,8.533,3.413,8.533,8.533v51.2C306.2,217.453,302.787,220.867,297.667,220.867z M263.533,203.8h25.6v-34.133h-25.6V203.8z"
		/>
	<path d="M297.667,306.2H255c-5.12,0-8.533-3.413-8.533-8.533v-51.2c0-5.12,3.413-8.533,8.533-8.533h42.667
		c5.12,0,8.533,3.413,8.533,8.533v51.2C306.2,302.787,302.787,306.2,297.667,306.2z M263.533,289.133h25.6V255h-25.6V289.133z"/>
	<path d="M297.667,391.533H255c-5.12,0-8.533-3.413-8.533-8.533v-51.2c0-5.12,3.413-8.533,8.533-8.533h42.667
		c5.12,0,8.533,3.413,8.533,8.533V383C306.2,388.12,302.787,391.533,297.667,391.533z M263.533,374.467h25.6v-34.133h-25.6V374.467z
		"/>
	<path d="M297.667,476.867H255c-5.12,0-8.533-3.413-8.533-8.533v-51.2c0-5.12,3.413-8.533,8.533-8.533h42.667
		c5.12,0,8.533,3.413,8.533,8.533v51.2C306.2,473.453,302.787,476.867,297.667,476.867z M263.533,459.8h25.6v-34.133h-25.6V459.8z"
		/>
	<path d="M502.467,511h-204.8c-5.12,0-8.533-3.413-8.533-8.533V109.933c0-5.12,3.413-8.533,8.533-8.533h204.8
		c5.12,0,8.533,3.413,8.533,8.533v392.533C511,507.587,507.587,511,502.467,511z M306.2,493.933h187.733V118.467H306.2V493.933z"/>
	<path d="M459.8,118.467H340.333c-5.12,0-8.533-3.413-8.533-8.533V75.8c0-5.12,3.413-8.533,8.533-8.533H459.8
		c5.12,0,8.533,3.413,8.533,8.533v34.133C468.333,115.053,464.92,118.467,459.8,118.467z M348.867,101.4h102.4V84.333h-102.4V101.4z
		"/>
	<path d="M340.333,203.8h-42.667c-5.12,0-8.533-3.413-8.533-8.533v-51.2c0-5.12,3.413-8.533,8.533-8.533h42.667
		c5.12,0,8.533,3.413,8.533,8.533v51.2C348.867,200.387,345.453,203.8,340.333,203.8z M306.2,186.733h25.6V152.6h-25.6V186.733z"/>
	<path d="M425.667,203.8h-51.2c-5.12,0-8.533-3.413-8.533-8.533v-51.2c0-5.12,3.413-8.533,8.533-8.533h51.2
		c5.12,0,8.533,3.413,8.533,8.533v51.2C434.2,200.387,430.787,203.8,425.667,203.8z M383,186.733h34.133V152.6H383V186.733z"/>
	<path d="M340.333,289.133h-42.667c-5.12,0-8.533-3.413-8.533-8.533v-51.2c0-5.12,3.413-8.533,8.533-8.533h42.667
		c5.12,0,8.533,3.413,8.533,8.533v51.2C348.867,285.72,345.453,289.133,340.333,289.133z M306.2,272.067h25.6v-34.133h-25.6V272.067
		z"/>
	<path d="M425.667,289.133h-51.2c-5.12,0-8.533-3.413-8.533-8.533v-51.2c0-5.12,3.413-8.533,8.533-8.533h51.2
		c5.12,0,8.533,3.413,8.533,8.533v51.2C434.2,285.72,430.787,289.133,425.667,289.133z M383,272.067h34.133v-34.133H383V272.067z"/>
	<path d="M340.333,374.467h-42.667c-5.12,0-8.533-3.413-8.533-8.533v-51.2c0-5.12,3.413-8.533,8.533-8.533h42.667
		c5.12,0,8.533,3.413,8.533,8.533v51.2C348.867,371.053,345.453,374.467,340.333,374.467z M306.2,357.4h25.6v-34.133h-25.6V357.4z"
		/>
	<path d="M425.667,374.467h-51.2c-5.12,0-8.533-3.413-8.533-8.533v-51.2c0-5.12,3.413-8.533,8.533-8.533h51.2
		c5.12,0,8.533,3.413,8.533,8.533v51.2C434.2,371.053,430.787,374.467,425.667,374.467z M383,357.4h34.133v-34.133H383V357.4z"/>
	<path d="M340.333,459.8h-42.667c-5.12,0-8.533-3.413-8.533-8.533v-51.2c0-5.12,3.413-8.533,8.533-8.533h42.667
		c5.12,0,8.533,3.413,8.533,8.533v51.2C348.867,456.387,345.453,459.8,340.333,459.8z M306.2,442.733h25.6V408.6h-25.6V442.733z"/>
	<path d="M425.667,459.8h-51.2c-5.12,0-8.533-3.413-8.533-8.533v-51.2c0-5.12,3.413-8.533,8.533-8.533h51.2
		c5.12,0,8.533,3.413,8.533,8.533v51.2C434.2,456.387,430.787,459.8,425.667,459.8z M383,442.733h34.133V408.6H383V442.733z"/>
	<path d="M502.467,203.8H459.8c-5.12,0-8.533-3.413-8.533-8.533v-51.2c0-5.12,3.413-8.533,8.533-8.533h42.667
		c5.12,0,8.533,3.413,8.533,8.533v51.2C511,200.387,507.587,203.8,502.467,203.8z M468.333,186.733h25.6V152.6h-25.6V186.733z"/>
	<path d="M502.467,289.133H459.8c-5.12,0-8.533-3.413-8.533-8.533v-51.2c0-5.12,3.413-8.533,8.533-8.533h42.667
		c5.12,0,8.533,3.413,8.533,8.533v51.2C511,285.72,507.587,289.133,502.467,289.133z M468.333,272.067h25.6v-34.133h-25.6V272.067z"
		/>
	<path d="M502.467,374.467H459.8c-5.12,0-8.533-3.413-8.533-8.533v-51.2c0-5.12,3.413-8.533,8.533-8.533h42.667
		c5.12,0,8.533,3.413,8.533,8.533v51.2C511,371.053,507.587,374.467,502.467,374.467z M468.333,357.4h25.6v-34.133h-25.6V357.4z"/>
	<path d="M502.467,459.8H459.8c-5.12,0-8.533-3.413-8.533-8.533v-51.2c0-5.12,3.413-8.533,8.533-8.533h42.667
		c5.12,0,8.533,3.413,8.533,8.533v51.2C511,456.387,507.587,459.8,502.467,459.8z M468.333,442.733h25.6V408.6h-25.6V442.733z"/>
</g>
</svg>